<?xml version="1.0" ?><svg viewBox="0 0 24 24" xmlns="http://www.w3.org/2000/svg"><defs><style>.a{fill:#c2f3ff;}.b{fill:#66e1ff;}.c{fill:none;}.c,.d{stroke:#191919;stroke-linecap:round;stroke-linejoin:round;}.d{fill:#ffef5e;}.e{fill:#c9f7ca;}.f{fill:#78eb7b;}</style></defs><title/><polygon class="a" points="4.064 22.489 19.783 22.489 23.204 16.489 7.479 16.489 4.064 22.489"/><polygon class="b" points="7.479 16.489 4.064 22.489 9.387 22.489 7.479 16.489"/><polygon class="c" points="4.064 22.489 19.783 22.489 23.204 16.489 7.479 16.489 4.064 22.489"/><path class="d" d="M16.129,16.489h7.076L15.389,2.5H8.312C8.641,3.064,16.129,16.489,16.129,16.489Z"/><path class="e" d="M8.312,2.5.5,16.06l3.564,6.429s7.46-13.11,7.786-13.668Z"/><path class="f" d="M9.573,12.812c1.207-2.12,2.165-3.8,2.277-3.991L8.312,2.5Z"/><path class="c" d="M8.312,2.5.5,16.06l3.564,6.429s7.46-13.11,7.786-13.668Z"/></svg>